<svg width="29" height="28" viewBox="0 0 29 28" fill="none" xmlns="http://www.w3.org/2000/svg">
<rect width="28" height="28" transform="translate(0.5)" fill="#F2F4F7"/>
<path d="M9.25 21C10.2165 21 11 21.7835 11 22.75C11 23.7165 10.2165 24.5 9.25 24.5C8.2835 24.5 7.5 23.7165 7.5 22.75C7.5 21.7835 8.2835 21 9.25 21Z" stroke="#1D2939" stroke-width="1.5"/>
<path d="M19.75 21.0001C20.7165 21.0001 21.5 21.7836 21.5 22.7501C21.5 23.7166 20.7165 24.5001 19.75 24.5001C18.7835 24.5001 18 23.7166 18 22.7501C18 21.7836 18.7835 21.0001 19.75 21.0001Z" stroke="#1D2939" stroke-width="1.5"/>
<path d="M3.13775 3.60714L3.38651 2.8996H3.38651L3.13775 3.60714ZM3.08177 2.79246C2.691 2.65507 2.26285 2.86048 2.12546 3.25124C1.98808 3.64201 2.19348 4.07016 2.58425 4.20754L3.08177 2.79246ZM5.84982 5.04348L6.46905 4.62033V4.62033L5.84982 5.04348ZM7.36868 17.0172L6.82441 17.5332H6.82441L7.36868 17.0172ZM24.6004 11.5299L25.335 11.6813L25.3359 11.6767L24.6004 11.5299ZM24.0174 14.3587L24.7519 14.5101V14.5101L24.0174 14.3587ZM24.6899 7.81326L24.0955 8.27057L24.6899 7.81326ZM22.8222 17.5588L22.3484 16.9774V16.9774L22.8222 17.5588ZM6.2841 11.3867H7.0341V8.21142H6.2841H5.5341V11.3867H6.2841ZM3.13775 3.60714L3.38651 2.8996L3.08177 2.79246L2.83301 3.5L2.58425 4.20754L2.88899 4.31469L3.13775 3.60714ZM13.2601 18.0833V18.8333H19.4468V18.0833V17.3333H13.2601V18.0833ZM6.2841 8.21142H7.0341C7.0341 7.38367 7.03512 6.70312 6.97546 6.15195C6.91397 5.58392 6.78205 5.07836 6.46905 4.62033L5.84982 5.04348L5.23059 5.46663C5.35187 5.64411 5.43709 5.87838 5.48417 6.31337C5.53308 6.76522 5.5341 7.35088 5.5341 8.21142H6.2841ZM3.13775 3.60714L2.88899 4.31469C3.66507 4.58754 4.18517 4.77169 4.57 4.96051C4.93522 5.13971 5.11151 5.29237 5.23059 5.46663L5.84982 5.04348L6.46905 4.62033C6.15385 4.15907 5.73337 3.8605 5.23075 3.61388C4.74775 3.37689 4.12896 3.16063 3.38651 2.8996L3.13775 3.60714ZM6.2841 11.3867H5.5341C5.5341 13.0843 5.55036 14.2947 5.7081 15.2157C5.87511 16.1908 6.20598 16.8809 6.82441 17.5332L7.36868 17.0172L7.91294 16.5012C7.52058 16.0873 7.30915 15.6782 7.18657 14.9625C7.05473 14.1927 7.0341 13.1208 7.0341 11.3867H6.2841ZM13.2601 18.0833V17.3333C11.6109 17.3333 10.4535 17.3316 9.57858 17.2075C8.72951 17.0871 8.25768 16.8648 7.91294 16.5012L7.36868 17.0172L6.82441 17.5332C7.49047 18.2357 8.33748 18.5465 9.36797 18.6926C10.3726 18.8351 11.6555 18.8333 13.2601 18.8333V18.0833ZM6.2841 7.14V7.89H20.4366V7.14V6.39H6.2841V7.14ZM24.6004 11.5299L23.8658 11.3785L23.2828 14.2073L24.0174 14.3587L24.7519 14.5101L25.335 11.6813L24.6004 11.5299ZM20.4366 7.14V7.89C21.4334 7.89 22.3205 7.891 23.0229 7.96952C23.3722 8.00857 23.6407 8.06348 23.8347 8.13162C24.0346 8.20187 24.09 8.2634 24.0955 8.27057L24.6899 7.81326L25.2844 7.35596C25.0309 7.02649 24.6709 6.83556 24.3319 6.71644C23.9869 6.59523 23.5931 6.52391 23.1895 6.4788C22.3862 6.389 21.4056 6.39 20.4366 6.39V7.14ZM24.6004 11.5299L25.3359 11.6767C25.5341 10.6839 25.6994 9.86376 25.7398 9.20941C25.7812 8.53873 25.7032 7.90044 25.2844 7.35596L24.6899 7.81326L24.0955 8.27057C24.1945 8.39935 24.2743 8.60492 24.2427 9.117C24.2101 9.64542 24.0717 10.347 23.8649 11.3831L24.6004 11.5299ZM19.4468 18.0833V18.8333C20.3386 18.8333 21.0753 18.8346 21.6672 18.7622C22.2794 18.6873 22.8235 18.5252 23.296 18.1402L22.8222 17.5588L22.3484 16.9774C22.1772 17.1169 21.9442 17.2171 21.485 17.2733C21.0053 17.332 20.3761 17.3333 19.4468 17.3333V18.0833ZM24.0174 14.3587L23.2828 14.2073C23.0952 15.1176 22.9669 15.7335 22.8126 16.1914C22.6648 16.6299 22.5196 16.8379 22.3484 16.9774L22.8222 17.5588L23.296 18.1402C23.7685 17.7552 24.037 17.255 24.234 16.6705C24.4244 16.1054 24.5719 15.3836 24.7519 14.5101L24.0174 14.3587Z" fill="#1D2939"/>
<path d="M11.583 10.5L12.1992 14.1375" stroke="#1D2939" stroke-width="1.5" stroke-linecap="round"/>
<path d="M18.6162 10.5L18 14.1375" stroke="#1D2939" stroke-width="1.5" stroke-linecap="round"/>
</svg>
