<svg width="24" height="25" viewBox="0 0 24 25" fill="none" xmlns="http://www.w3.org/2000/svg">
<path d="M12 3.00391C10.0716 3.00391 8.18657 3.57573 6.58319 4.64708C4.97982 5.71842 3.73013 7.24116 2.99218 9.02274C2.25422 10.8043 2.06114 12.7647 2.43735 14.656C2.81355 16.5474 3.74215 18.2846 5.10571 19.6482C6.46928 21.0118 8.20656 21.9404 10.0979 22.3166C11.9892 22.6928 13.9496 22.4997 15.7312 21.7617C17.5127 21.0238 19.0355 19.7741 20.1068 18.1707C21.1782 16.5673 21.75 14.6823 21.75 12.7539C21.7473 10.1689 20.7192 7.69052 18.8913 5.86263C17.0634 4.03474 14.585 3.00664 12 3.00391ZM12.75 20.9692V15.0039H15C15.1989 15.0039 15.3897 14.9249 15.5303 14.7842C15.671 14.6436 15.75 14.4528 15.75 14.2539C15.75 14.055 15.671 13.8642 15.5303 13.7236C15.3897 13.5829 15.1989 13.5039 15 13.5039H12.75V11.2539C12.75 10.8561 12.908 10.4746 13.1893 10.1932C13.4706 9.91194 13.8522 9.75391 14.25 9.75391H15.75C15.9489 9.75391 16.1397 9.67489 16.2803 9.53424C16.421 9.39358 16.5 9.20282 16.5 9.00391C16.5 8.80499 16.421 8.61423 16.2803 8.47358C16.1397 8.33292 15.9489 8.25391 15.75 8.25391H14.25C13.4544 8.25391 12.6913 8.56998 12.1287 9.13259C11.5661 9.69519 11.25 10.4583 11.25 11.2539V13.5039H9C8.80109 13.5039 8.61033 13.5829 8.46967 13.7236C8.32902 13.8642 8.25 14.055 8.25 14.2539C8.25 14.4528 8.32902 14.6436 8.46967 14.7842C8.61033 14.9249 8.80109 15.0039 9 15.0039H11.25V20.9692C9.13575 20.7762 7.17728 19.7756 5.78198 18.1754C4.38667 16.5753 3.66195 14.4988 3.75855 12.378C3.85515 10.2571 4.76564 8.25517 6.30064 6.78851C7.83563 5.32184 9.87696 4.50338 12 4.50338C14.1231 4.50338 16.1644 5.32184 17.6994 6.78851C19.2344 8.25517 20.1449 10.2571 20.2415 12.378C20.3381 14.4988 19.6133 16.5753 18.218 18.1754C16.8227 19.7756 14.8643 20.7762 12.75 20.9692Z" fill="black"/>
</svg>
