<svg width="39" height="39" viewBox="0 0 39 39" fill="none" xmlns="http://www.w3.org/2000/svg">
<path d="M7.15709 11.9688C7.23096 11.994 7.30906 12.0043 7.38693 11.9993C7.4648 11.9942 7.5409 11.9738 7.61086 11.9392C7.68081 11.9046 7.74326 11.8566 7.7946 11.7978C7.84594 11.739 7.88516 11.6707 7.91003 11.5967L9.28159 7.54106C9.33 7.39242 9.31784 7.23069 9.24776 7.09097C9.17767 6.95124 9.05531 6.84479 8.90722 6.79471C8.75914 6.74464 8.59728 6.75499 8.45678 6.82351C8.31627 6.89202 8.20846 7.01319 8.15673 7.1607L6.78517 11.2164C6.73477 11.3655 6.74564 11.5285 6.81538 11.6696C6.88512 11.8107 7.00803 11.9183 7.15709 11.9688Z" fill="#1D2939"/>
<path d="M8.5393 17.1305C8.61315 17.1556 8.69124 17.1659 8.76908 17.1608C8.84692 17.1557 8.92299 17.1352 8.99291 17.1006C9.06284 17.0661 9.12525 17.018 9.17656 16.9593C9.22788 16.9005 9.26709 16.8322 9.29194 16.7582L10.6643 12.7026C10.6903 12.6285 10.7013 12.5499 10.6968 12.4715C10.6922 12.3931 10.6721 12.3164 10.6377 12.2458C10.6033 12.1753 10.5552 12.1122 10.4962 12.0603C10.4373 12.0085 10.3686 11.9688 10.2942 11.9436C10.2198 11.9185 10.1412 11.9083 10.0628 11.9138C9.9845 11.9192 9.90802 11.9402 9.83782 11.9754C9.76762 12.0106 9.70511 12.0594 9.6539 12.1189C9.60269 12.1784 9.5638 12.2476 9.53948 12.3222L8.16702 16.3778C8.11659 16.527 8.12747 16.6901 8.19729 16.8313C8.26711 16.9724 8.39013 17.08 8.5393 17.1305Z" fill="#1D2939"/>
<path d="M34.3431 17.5638C33.8381 17.5567 33.3464 17.7257 32.9524 18.0416C33.6377 14.969 32.5536 12.1801 30.3892 11.6003C29.788 11.4455 29.1545 11.4712 28.5678 11.6741C28.7006 11.348 28.9084 11.0579 29.1745 10.8273C29.3994 10.657 29.6581 10.5367 29.9334 10.4747C30.2086 10.4127 30.4939 10.4104 30.7702 10.4678C30.8481 10.4798 30.9276 10.4761 31.0041 10.457C31.0805 10.438 31.1524 10.4038 31.2156 10.3567C31.2788 10.3095 31.3319 10.2502 31.3719 10.1823C31.4119 10.1144 31.438 10.0392 31.4486 9.96112C31.4593 9.88302 31.4543 9.80358 31.4339 9.72744C31.4135 9.6513 31.3782 9.57998 31.3299 9.51763C31.2817 9.45529 31.2215 9.40318 31.153 9.36433C31.0844 9.32548 31.0087 9.30067 30.9305 9.29136C30.4925 9.21004 30.0422 9.22305 29.6097 9.32954C29.1771 9.43602 28.7722 9.63352 28.4221 9.90886C27.955 10.3098 27.6008 10.8257 27.3945 11.4056C26.9813 10.9063 26.4254 10.5453 25.8013 10.371C25.3517 10.2609 24.8844 10.2435 24.4279 10.3201C23.9714 10.3967 23.5353 10.5655 23.1463 10.8163C22.5257 9.94232 21.6742 9.25828 20.6869 8.84082V7.47009C20.8443 7.47009 20.9954 7.40753 21.1067 7.29618C21.2181 7.18483 21.2806 7.03381 21.2806 6.87634V4.50134C21.2806 4.34387 21.2181 4.19285 21.1067 4.0815C20.9954 3.97015 20.8443 3.90759 20.6869 3.90759H15.9369C15.7794 3.90759 15.6284 3.97015 15.517 4.0815C15.4057 4.19285 15.3431 4.34387 15.3431 4.50134V6.87634C15.3431 7.03381 15.4057 7.18483 15.517 7.29618C15.6284 7.40753 15.7794 7.47009 15.9369 7.47009V8.84023C14.7862 9.32499 13.8236 10.1694 13.193 11.2471C11.4244 6.6538 8.73836 2.11904 6.26521 2.78303C4.89567 3.14973 4.13549 5.00057 4.0665 8.13545C4.08011 11.3556 4.51047 14.5604 5.34686 17.67C5.12168 17.5984 4.88667 17.5626 4.65039 17.5638C4.49292 17.5638 4.3419 17.6264 4.23055 17.7377C4.1192 17.8491 4.05664 18.0001 4.05664 18.1576V36.5638C4.05664 36.7213 4.1192 36.8723 4.23055 36.9837C4.3419 37.095 4.49292 37.1576 4.65039 37.1576H34.3431C34.5006 37.1576 34.6516 37.095 34.763 36.9837C34.8743 36.8723 34.9369 36.7213 34.9369 36.5638V18.1576C34.9369 18.0001 34.8743 17.8491 34.763 17.7377C34.6516 17.6264 34.5006 17.5638 34.3431 17.5638ZM25.4937 11.5176C25.8567 11.642 26.1853 11.8501 26.4531 12.1249C26.7208 12.3998 26.9201 12.7338 27.0349 13.1C27.069 13.1861 27.1228 13.263 27.192 13.3246C27.2612 13.3862 27.3438 13.4307 27.4333 13.4547C27.5228 13.4786 27.6166 13.4813 27.7073 13.4625C27.798 13.4437 27.8831 13.404 27.9557 13.3464C28.2384 13.087 28.5781 12.8976 28.9474 12.7935C29.3167 12.6894 29.7053 12.6735 30.0819 12.7472C31.6359 13.1635 32.3862 15.6165 31.7199 18.1034C31.6218 18.4592 31.4967 18.8071 31.3455 19.1438C30.9014 19.1353 30.6835 18.9314 30.3191 18.5429C30.0996 18.2397 29.8113 17.9929 29.4779 17.8227C29.1446 17.6524 28.7756 17.5637 28.4013 17.5637C28.027 17.5637 27.658 17.6524 27.3246 17.8227C26.9912 17.9929 26.703 18.2397 26.4835 18.5429C26.1112 18.9398 25.8961 19.1468 25.4325 19.1468C24.969 19.1468 24.7541 18.9398 24.3816 18.5429C24.1564 18.2461 23.8671 18.0039 23.5353 17.8344C23.2035 17.6649 22.8377 17.5724 22.4652 17.5638C22.015 17.5574 21.5742 17.6924 21.2049 17.9498C21.0979 17.0748 21.163 16.1873 21.3966 15.3373C22.0628 12.8512 23.9305 11.0993 25.4937 11.5176ZM16.5306 5.09509H20.0931V6.28259H16.5306V5.09509ZM16.7185 9.81463C16.8367 9.7752 16.9395 9.69959 17.0123 9.59849C17.0852 9.4974 17.1244 9.37595 17.1244 9.25134V7.47009H19.4994V9.25134C19.4994 9.37595 19.5386 9.4974 19.6114 9.59849C19.6842 9.69959 19.787 9.7752 19.9053 9.81463C20.8381 10.1279 21.6453 10.7331 22.2075 11.5407C21.255 12.5082 20.579 13.7131 20.2497 15.0302C19.8941 16.292 19.8688 17.6239 20.1763 18.8982C19.9894 19.0635 19.7471 19.1523 19.4976 19.1471C19.0345 19.1471 18.8186 18.9401 18.4467 18.5429C18.2274 18.2397 17.9392 17.9929 17.606 17.8227C17.2727 17.6525 16.9038 17.5638 16.5296 17.5638C16.1554 17.5639 15.7865 17.6527 15.4533 17.823C15.1201 17.9933 14.8321 18.2402 14.6128 18.5435C14.2412 18.9401 14.0255 19.1471 13.5628 19.1471H13.5619V14.1941C13.561 13.225 13.8655 12.2803 14.4322 11.4941C14.9988 10.7079 15.7988 10.1203 16.7185 9.81463ZM6.57254 3.92992C7.82624 3.59664 10.4531 6.92918 12.5347 12.9051C12.433 13.3274 12.3792 13.7598 12.3744 14.1941V18.3994C12.1557 18.1395 11.8832 17.9301 11.5756 17.7858C11.268 17.6415 10.9328 17.5658 10.5931 17.5638C10.2203 17.5724 9.85421 17.6649 9.52205 17.8344C9.18988 18.0039 8.90018 18.246 8.67447 18.5429C8.30219 18.9398 8.08589 19.1471 7.62146 19.1471C7.4876 19.1497 7.35455 19.1258 7.22998 19.0768C7.10541 19.0277 6.9918 18.9545 6.89572 18.8612C6.8177 18.5904 6.74027 18.319 6.66588 18.0431C5.75071 14.8283 5.27576 11.5042 5.254 8.16181C5.31723 5.28509 5.97647 4.08963 6.57254 3.92992ZM5.24414 18.9264C5.41144 19.0533 5.56515 19.1971 5.70281 19.3555C5.92852 19.6524 6.21822 19.8946 6.55039 20.064C6.88255 20.2335 7.24864 20.326 7.62146 20.3346C7.99437 20.3261 8.36058 20.2337 8.69285 20.0642C9.02513 19.8947 9.31492 19.6525 9.54069 19.3555C9.91297 18.9583 10.1293 18.7513 10.5931 18.7513C11.057 18.7513 11.2721 18.9583 11.6441 19.3552C11.8634 19.6585 12.1516 19.9053 12.4848 20.0756C12.8181 20.2458 13.187 20.3346 13.5613 20.3346C13.9355 20.3346 14.3044 20.2458 14.6377 20.0756C14.971 19.9053 15.2591 19.6585 15.4785 19.3552C15.8508 18.9583 16.0659 18.7513 16.5294 18.7513C16.993 18.7513 17.2078 18.9583 17.5804 19.3552C17.7997 19.6585 18.0879 19.9053 18.4212 20.0756C18.7544 20.2458 19.1233 20.3346 19.4976 20.3346C19.8718 20.3346 20.2407 20.2458 20.574 20.0756C20.9073 19.9053 21.1954 19.6585 21.4148 19.3552C21.787 18.9583 22.0021 18.7513 22.4657 18.7513C22.9293 18.7513 23.1442 18.9583 23.5167 19.3552C23.736 19.6585 24.0241 19.9053 24.3573 20.0756C24.6906 20.2458 25.0594 20.3346 25.4336 20.3346C25.8078 20.3346 26.1767 20.2458 26.5099 20.0756C26.8432 19.9053 27.1313 19.6585 27.3506 19.3552C27.4879 19.1987 27.6411 19.0569 27.8078 18.932V35.9701H5.24527L5.24414 18.9264ZM33.7494 35.9701H28.9941V18.9312C29.1614 19.0563 29.3151 19.1985 29.4528 19.3555C29.6726 19.6587 29.9611 19.9055 30.2946 20.0757C30.6282 20.2458 30.9973 20.3346 31.3718 20.3346C31.7462 20.3346 32.1153 20.2458 32.4489 20.0757C32.7824 19.9055 33.0709 19.6587 33.2907 19.3555C33.4284 19.1971 33.5821 19.0533 33.7494 18.9264V35.9701Z" fill="#1D2939"/>
</svg>
