<svg width="24" height="24" viewBox="0 0 24 24" fill="none" xmlns="http://www.w3.org/2000/svg">
<path d="M17.3804 10.38V13.61C17.3804 16.3 16.3004 17.38 13.6104 17.38H10.3804C7.69035 17.38 6.61035 16.3 6.61035 13.61V10.38C6.61035 7.69 7.69035 6.60999 10.3804 6.60999H13.6104C16.3104 6.61999 17.3804 7.69 17.3804 10.38Z" stroke="#262826" stroke-width="1.5" stroke-linecap="round" stroke-linejoin="round"/>
<path d="M22.0005 5.76999V9C22.0005 11.69 20.9205 12.77 18.2305 12.77H17.3805V10.39C17.3805 7.70001 16.3005 6.62 13.6105 6.62H11.2305V5.76999C11.2305 3.07999 12.3105 2 15.0005 2H18.2305C20.9205 2 22.0005 3.07999 22.0005 5.76999Z" stroke="#262826" stroke-width="1.5" stroke-linecap="round" stroke-linejoin="round"/>
<path d="M2 18.23V15C2 12.31 3.08 11.23 5.77 11.23H6.62V13.61C6.62 16.3 7.7 17.38 10.39 17.38H12.77V18.23C12.77 20.92 11.69 22 9 22H5.77C3.08 22 2 20.92 2 18.23Z" stroke="#262826" stroke-width="1.5" stroke-linecap="round" stroke-linejoin="round"/>
</svg>
