<svg width="24" height="25" viewBox="0 0 24 25" fill="none" xmlns="http://www.w3.org/2000/svg">
<path d="M12 8.25391C11.11 8.25391 10.24 8.51783 9.49993 9.01229C8.75991 9.50676 8.18314 10.2096 7.84254 11.0318C7.50195 11.8541 7.41283 12.7589 7.58647 13.6318C7.7601 14.5047 8.18868 15.3066 8.81802 15.9359C9.44736 16.5652 10.2492 16.9938 11.1221 17.1674C11.995 17.3411 12.8998 17.252 13.7221 16.9114C14.5443 16.5708 15.2471 15.994 15.7416 15.254C16.2361 14.514 16.5 13.6439 16.5 12.7539C16.4988 11.5608 16.0243 10.4169 15.1806 9.5733C14.337 8.72965 13.1931 8.25515 12 8.25391ZM12 15.7539C11.4067 15.7539 10.8266 15.578 10.3333 15.2483C9.83994 14.9187 9.45542 14.4501 9.22836 13.902C9.0013 13.3538 8.94189 12.7506 9.05764 12.1686C9.1734 11.5867 9.45912 11.0521 9.87868 10.6326C10.2982 10.213 10.8328 9.92731 11.4147 9.81155C11.9967 9.69579 12.5999 9.7552 13.1481 9.98227C13.6962 10.2093 14.1648 10.5938 14.4944 11.0872C14.8241 11.5805 15 12.1606 15 12.7539C15 13.5496 14.6839 14.3126 14.1213 14.8752C13.5587 15.4378 12.7956 15.7539 12 15.7539ZM16.5 3.00391H7.5C6.10807 3.0054 4.77358 3.559 3.78933 4.54324C2.80509 5.52748 2.25149 6.86198 2.25 8.25391V17.2539C2.25149 18.6458 2.80509 19.9803 3.78933 20.9646C4.77358 21.9488 6.10807 22.5024 7.5 22.5039H16.5C17.8919 22.5024 19.2264 21.9488 20.2107 20.9646C21.1949 19.9803 21.7485 18.6458 21.75 17.2539V8.25391C21.7485 6.86198 21.1949 5.52748 20.2107 4.54324C19.2264 3.559 17.8919 3.0054 16.5 3.00391ZM20.25 17.2539C20.25 18.2485 19.8549 19.2023 19.1516 19.9056C18.4484 20.6088 17.4946 21.0039 16.5 21.0039H7.5C6.50544 21.0039 5.55161 20.6088 4.84835 19.9056C4.14509 19.2023 3.75 18.2485 3.75 17.2539V8.25391C3.75 7.25934 4.14509 6.30552 4.84835 5.60226C5.55161 4.89899 6.50544 4.50391 7.5 4.50391H16.5C17.4946 4.50391 18.4484 4.89899 19.1516 5.60226C19.8549 6.30552 20.25 7.25934 20.25 8.25391V17.2539ZM18 7.87891C18 8.10141 17.934 8.31892 17.8104 8.50392C17.6868 8.68893 17.5111 8.83312 17.3055 8.91827C17.1 9.00342 16.8738 9.0257 16.6555 8.98229C16.4373 8.93888 16.2368 8.83174 16.0795 8.6744C15.9222 8.51707 15.815 8.31661 15.7716 8.09838C15.7282 7.88015 15.7505 7.65395 15.8356 7.44839C15.9208 7.24282 16.065 7.06712 16.25 6.9435C16.435 6.81989 16.6525 6.75391 16.875 6.75391C17.1734 6.75391 17.4595 6.87243 17.6705 7.08341C17.8815 7.29439 18 7.58054 18 7.87891Z" fill="black"/>
</svg>
