<svg width="108" height="88" viewBox="0 0 108 88" fill="none" xmlns="http://www.w3.org/2000/svg">
<path d="M78.931 2.29586C80.2897 3.42832 81.3638 4.86373 82.067 6.48673C82.6992 8.00681 82.9088 9.17883 82.7063 9.9957C82.2943 11.1961 81.3354 14.7572 79.8295 20.6789C78.1897 27.2973 76.9011 33.9979 75.969 40.7524C74.9035 48.2108 74.7851 54.8404 75.6138 60.6413C76.9018 65.0003 78.4894 67.3254 80.3765 67.6166C82.2636 67.9079 84.2371 66.9501 86.297 64.7434C88.524 62.3128 90.474 59.6422 92.1109 56.7808C93.927 53.6814 95.9893 49.6563 98.2978 44.7054C103.829 44.5278 106.842 46.0336 107.337 49.223C107.831 52.4123 107.121 56.1048 105.206 60.3004C103.579 63.9459 101.725 67.4855 99.6545 70.8983C97.9971 73.9764 95.1239 77.4711 91.0348 81.3826C86.9457 85.2941 82.4696 87.3493 77.6062 87.5482C72.7382 87.7352 68.2703 83.7787 64.2026 75.6787C60.3124 66.2078 58.8065 55.5176 59.6849 43.6079C56.8768 50.3938 54.4878 56.9879 52.5178 63.3903C50.8225 69.7405 49.8435 74.8891 49.5807 78.8361C49.3179 81.6774 48.9153 83.8415 48.3731 85.3284C47.8309 86.8153 46.7418 87.5908 45.1057 87.6547C38.8454 87.6547 35.0428 84.3056 33.698 77.6073C32.3531 70.909 32.2347 63.0623 33.3428 54.0673C34.4557 45.07 35.7863 36.7415 37.3348 29.0819C37.4804 28.2331 37.6438 27.4127 37.8178 26.6242C38.6939 21.768 38.7448 19.7862 37.9705 20.6789C37.1963 21.5715 35.9319 24.3287 34.1774 28.9505C32.4182 33.5723 30.5016 39.056 28.4274 45.4015C26.3533 51.747 24.4532 57.9338 22.7271 63.9621C21.0011 69.9879 19.8018 74.8583 19.1294 78.5733C19.1578 78.6905 19.1897 78.8077 19.2182 78.9285C19.3069 79.2232 19.3957 79.5003 19.481 79.7631C17.1133 84.328 14.5833 86.6094 11.8912 86.607C8.06026 86.4341 5.25214 82.6316 3.46687 75.1993C1.68161 67.767 0.785423 58.1564 0.77832 46.3675C0.77832 34.5502 2.14568 24.466 4.8804 16.1151C7.61513 7.76412 10.9122 3.58864 14.7716 3.58864C17.5536 3.6502 20.1132 6.03449 22.4501 10.7415C18.5315 19.6347 16.3532 31.1442 15.9152 45.2701C19.0832 34.2459 22.7804 24.2435 27.0068 15.2627C31.2332 6.28192 36.4422 1.49912 42.6338 0.914289C43.1729 0.85718 43.7147 0.827545 44.2568 0.825499C48.2346 1.03149 50.9113 2.6889 52.287 5.79772C53.6626 8.90654 54.251 12.5434 54.0521 16.7082C53.8862 20.5819 53.3944 24.4348 52.5818 28.226C51.8075 31.7208 51.244 33.9701 50.8912 34.974C50.6876 35.4996 51.4488 33.95 53.1749 30.325C54.8323 26.8136 56.9159 22.4701 59.4257 17.2942C61.9355 12.1184 64.3707 7.20415 66.7313 2.55157C69.2174 1.08832 71.4111 0.356689 73.3124 0.356689C75.5949 0.380367 77.4677 1.02676 78.931 2.29586Z" fill="#231F20"/>
</svg>
