<svg width="22" height="18" viewBox="0 0 22 18" fill="none" xmlns="http://www.w3.org/2000/svg">
<path d="M15.4876 0.384288C15.7569 0.608711 15.9698 0.893169 16.1091 1.2148C16.2344 1.51604 16.2759 1.7483 16.2358 1.91018C16.1542 2.14807 15.9641 2.85377 15.6657 4.02728C15.3407 5.33887 15.0854 6.66673 14.9007 8.0053C14.6895 9.48333 14.6661 10.7971 14.8303 11.9467C15.0855 12.8105 15.4001 13.2713 15.7741 13.329C16.1481 13.3867 16.5392 13.1969 16.9474 12.7596C17.3887 12.278 17.7752 11.7487 18.0995 11.1817C18.4594 10.5674 18.8681 9.76978 19.3256 8.78865C20.4217 8.75346 21.0188 9.05188 21.1168 9.68392C21.2149 10.316 21.0741 11.0477 20.6945 11.8791C20.3722 12.6016 20.0048 13.303 19.5945 13.9794C19.266 14.5893 18.6966 15.2819 17.8863 16.057C17.0759 16.8322 16.1889 17.2395 15.2251 17.2789C14.2604 17.316 13.375 16.5319 12.5689 14.9267C11.798 13.0498 11.4995 10.9313 11.6736 8.57117C11.1171 9.91594 10.6437 11.2227 10.2533 12.4915C9.91735 13.7499 9.72333 14.7702 9.67125 15.5524C9.61917 16.1155 9.5394 16.5443 9.43195 16.839C9.3245 17.1337 9.10866 17.2873 8.78443 17.3C7.54382 17.3 6.79026 16.6363 6.52375 15.3089C6.25723 13.9815 6.23377 12.4265 6.45336 10.6439C6.6739 8.86091 6.93759 7.21044 7.24446 5.69253C7.27332 5.52432 7.30569 5.36173 7.34018 5.20548C7.51379 4.24312 7.52388 3.85039 7.37045 4.02728C7.21701 4.20418 6.96645 4.75058 6.61876 5.66649C6.27013 6.5824 5.89031 7.6691 5.47927 8.9266C5.06824 10.1841 4.69169 11.4102 4.34963 12.6048C4.00758 13.7989 3.76992 14.7641 3.63666 15.5003C3.64229 15.5235 3.64862 15.5468 3.65426 15.5707C3.67185 15.6291 3.68945 15.684 3.70634 15.7361C3.23712 16.6407 2.73576 17.0928 2.20227 17.0924C1.44307 17.0581 0.886584 16.3046 0.532795 14.8317C0.179006 13.3588 0.00140765 11.4543 0 9.11804C0 6.77618 0.270973 4.77779 0.812917 3.12287C1.35486 1.46794 2.00824 0.64048 2.77307 0.64048C3.3244 0.65268 3.83162 1.12518 4.29474 2.05798C3.51818 3.82036 3.0865 6.10122 2.9997 8.90056C3.62751 6.71589 4.36019 4.73369 5.19774 2.95395C6.03529 1.17421 7.06757 0.226397 8.29457 0.1105C8.40142 0.0991831 8.50877 0.0933103 8.61622 0.0929048C9.4045 0.133727 9.93495 0.462178 10.2076 1.07826C10.4802 1.69434 10.5968 2.41506 10.5574 3.24041C10.5245 4.00807 10.427 4.7716 10.266 5.52291C10.1125 6.21547 10.0009 6.66123 9.93096 6.86017C9.89061 6.96434 10.0415 6.65724 10.3835 5.93887C10.712 5.24302 11.1249 4.38224 11.6222 3.35654C12.1196 2.33083 12.6022 1.35697 13.07 0.434963C13.5627 0.144988 13.9974 0 14.3742 0C14.8265 0.00469216 15.1977 0.132788 15.4876 0.384288Z" fill="#231F20"/>
</svg>
