<svg width="35" height="34" viewBox="0 0 35 34" fill="none" xmlns="http://www.w3.org/2000/svg">
<path d="M28.2109 13.7742C28.4094 13.7742 28.5956 13.6805 28.7139 13.5215C29.0931 13.0127 32.4149 8.4901 32.4149 6.36664C32.4149 5.91541 32.3414 5.46634 32.1962 5.03166C31.624 3.31561 30.0225 2.1626 28.2109 2.1626C26.3962 2.1626 24.7929 3.31561 24.2201 5.03258C24.0755 5.46879 24.002 5.91756 24.002 6.36664C24.002 8.4901 27.3287 13.013 27.7079 13.5218C27.8261 13.6808 28.013 13.7742 28.2109 13.7742ZM25.4104 5.42866C25.8117 4.22571 26.9372 3.41731 28.2109 3.41731C29.4815 3.41731 30.6051 4.22571 31.0064 5.42866C31.1081 5.73499 31.1602 6.05051 31.1602 6.36664C31.1602 7.50158 29.5146 10.2193 28.2103 12.076C26.9047 10.2199 25.2567 7.5025 25.2567 6.36664C25.2567 6.05204 25.3087 5.73621 25.4104 5.42866Z" fill="#1D2939"/>
<path d="M30.0913 6.36694C30.0913 5.3291 29.2471 4.48486 28.2092 4.48486C27.1714 4.48486 26.3271 5.3291 26.3271 6.36694C26.3271 7.40478 27.1714 8.24901 28.2092 8.24901C29.2471 8.24901 30.0913 7.40478 30.0913 6.36694ZM28.2092 6.9943C27.8631 6.9943 27.5819 6.71278 27.5819 6.36694C27.5819 6.0211 27.8631 5.73958 28.2092 5.73958C28.5554 5.73958 28.8366 6.0211 28.8366 6.36694C28.8366 6.71278 28.5554 6.9943 28.2092 6.9943Z" fill="#1D2939"/>
<path d="M4.49792 31.9955H29.9556C31.4248 31.9955 32.5524 30.659 32.2328 29.1516L30.0799 20.564C29.8447 19.4787 28.9067 18.7205 27.7978 18.7205H26.6699C26.6188 17.71 26.2549 16.7535 25.6394 15.9939V11.5813C25.6394 11.395 25.5255 11.2198 25.3827 11.1006C25.24 10.9815 25.02 10.9325 24.8368 10.9665C22.8132 10.9665 21.1664 8.32378 21.1664 5.07548C21.1664 4.40554 21.2393 3.74755 21.3821 3.12448C21.4538 2.8203 21.3839 2.50601 21.1909 2.26156C20.9998 2.02048 20.7143 1.88232 20.4073 1.88232H17.6032C17.0959 1.88232 16.6591 2.27075 16.6089 2.76516C16.4765 4.0502 15.4019 5.01912 14.1086 5.01912C12.8355 5.01912 11.7401 4.02999 11.6145 2.76424C11.5631 2.26983 11.1238 1.88232 10.6147 1.88232H7.81667C7.50912 1.88232 7.22301 2.02109 7.03186 2.26278C6.83887 2.50723 6.77025 2.82183 6.84132 3.11958C6.98407 3.74816 7.05698 4.40616 7.05698 5.07548C7.05698 8.32378 5.40771 10.9665 3.34613 10.9686C2.9554 10.8825 2.58398 11.1807 2.58398 11.5813V30.0819C2.58398 31.1372 3.44231 31.9955 4.49792 31.9955ZM28.8583 20.8492L31.0106 29.4334C31.1545 30.1148 30.6439 30.7408 29.9556 30.7408H13.8139C13.1184 30.7408 12.6036 30.1139 12.7541 29.4552L14.8916 20.829C14.9982 20.3343 15.4424 19.9752 15.9472 19.9752H17.0825V21.1874C16.3254 21.4519 15.7775 22.1656 15.7775 23.0116C15.7775 24.081 16.6475 24.9512 17.7172 24.9512C18.7869 24.9512 19.6568 24.081 19.6568 23.0116C19.6568 22.1602 19.1018 21.4431 18.3372 21.1828V19.9752H25.4262V21.1851C24.6653 21.4475 24.1139 22.1629 24.1139 23.0116C24.1139 24.081 24.9839 24.9512 26.0536 24.9512C27.1233 24.9512 27.9932 24.081 27.9932 23.0116C27.9932 22.1629 27.4418 21.4475 26.6809 21.1851V19.9752H27.7978C28.3106 19.9752 28.745 20.3266 28.8583 20.8492ZM17.7172 22.3266C18.0946 22.3266 18.4021 22.6339 18.4021 23.0116C18.4021 23.3893 18.0946 23.6965 17.7172 23.6965C17.3398 23.6965 17.0322 23.3893 17.0322 23.0116C17.0322 22.6339 17.3398 22.3266 17.7172 22.3266ZM26.0536 22.3266C26.431 22.3266 26.7385 22.6339 26.7385 23.0116C26.7385 23.3893 26.431 23.6965 26.0536 23.6965C25.6762 23.6965 25.3686 23.3893 25.3686 23.0116C25.3686 22.6339 25.6762 22.3266 26.0536 22.3266ZM18.3496 18.7205C18.4763 16.8801 20.0102 15.4205 21.882 15.4205C23.6786 15.4205 25.2709 16.7876 25.4041 18.7205H18.3496ZM3.8387 12.1921C6.38122 11.8674 8.31169 8.85832 8.31169 5.07548C8.31169 4.4181 8.24982 3.76869 8.12667 3.13704H10.399C10.6968 4.94192 12.2498 6.27383 14.1086 6.27383C15.9644 6.27383 17.5205 4.94223 17.8244 3.13704H20.0967C19.9736 3.76532 19.9117 4.41596 19.9117 5.07548C19.9117 8.86107 21.8422 11.8717 24.3847 12.1927V14.8697C23.6143 14.396 22.7092 14.1657 21.882 14.1657C19.4213 14.1657 17.2957 16.0731 17.1013 18.5929C17.098 18.6358 17.0908 18.6774 17.0886 18.7205H15.9472C14.8555 18.7205 13.8954 19.4958 13.6694 20.5456L11.5336 29.1648C11.4117 29.6984 11.5083 30.3081 11.7328 30.7408H4.49792C4.13461 30.7408 3.8387 30.4452 3.8387 30.0819V12.1921Z" fill="#1D2939"/>
</svg>
