<svg width="24" height="25" viewBox="0 0 24 25" fill="none" xmlns="http://www.w3.org/2000/svg">
<path d="M14 12.5C14 11.3954 13.1046 10.5 12 10.5C10.8954 10.5 10 11.3954 10 12.5C10 13.6046 10.8954 14.5 12 14.5C13.1046 14.5 14 13.6046 14 12.5Z" stroke="#262826" stroke-width="1.5" stroke-linecap="round" stroke-linejoin="round"/>
<path d="M18 4.5C16.33 3.24 14.25 2.5 12 2.5C9.75 2.5 7.67 3.24 6 4.5" stroke="#262826" stroke-width="1.5" stroke-linecap="round" stroke-linejoin="round"/>
<path d="M6 20.5C7.67 21.76 9.75 22.5 12 22.5C14.25 22.5 16.33 21.76 18 20.5" stroke="#262826" stroke-width="1.5" stroke-linecap="round" stroke-linejoin="round"/>
<path d="M15.5999 7.69995C14.5999 6.94995 13.3499 6.49994 11.9999 6.49994C10.6499 6.49994 9.3999 6.94995 8.3999 7.69995" stroke="#262826" stroke-width="1.5" stroke-linecap="round" stroke-linejoin="round"/>
<path d="M8.3999 17.3C9.3999 18.05 10.6499 18.5 11.9999 18.5C13.3499 18.5 14.5999 18.05 15.5999 17.3" stroke="#262826" stroke-width="1.5" stroke-linecap="round" stroke-linejoin="round"/>
</svg>
