<svg width="43" height="42" viewBox="0 0 43 42" fill="none" xmlns="http://www.w3.org/2000/svg">
<g clip-path="url(#clip0_1_1027)">
<path d="M41.8438 3.28125H4.4375V0.65625C4.4375 0.482202 4.36836 0.315282 4.24529 0.192211C4.12222 0.0691404 3.9553 0 3.78125 0L1.15625 0C0.982202 0 0.815282 0.0691404 0.692211 0.192211C0.56914 0.315282 0.5 0.482202 0.5 0.65625L0.5 41.3438C0.5 41.5178 0.56914 41.6847 0.692211 41.8078C0.815282 41.9309 0.982202 42 1.15625 42H3.78125C3.9553 42 4.12222 41.9309 4.24529 41.8078C4.36836 41.6847 4.4375 41.5178 4.4375 41.3438V6.5625H11V14.5318C8.46005 17.4027 7.05936 21.1043 7.0625 24.9375C7.0625 33.6222 14.1279 40.6875 22.8125 40.6875C31.4971 40.6875 38.5625 33.6222 38.5625 24.9375C38.5656 21.1043 37.1649 17.4027 34.625 14.5318V6.5625H41.8438C42.0178 6.5625 42.1847 6.49336 42.3078 6.37029C42.4309 6.24722 42.5 6.0803 42.5 5.90625V3.9375C42.5 3.76345 42.4309 3.59653 42.3078 3.47346C42.1847 3.35039 42.0178 3.28125 41.8438 3.28125ZM3.125 40.6875H1.8125V1.3125H3.125V40.6875ZM37.25 24.9375C37.25 32.8986 30.7736 39.375 22.8125 39.375C14.8514 39.375 8.375 32.8986 8.375 24.9375C8.375 16.9764 14.8514 10.5 22.8125 10.5C30.7736 10.5 37.25 16.9764 37.25 24.9375ZM12.3125 13.2087V6.5625H13.625V12.1529C13.1694 12.4817 12.7313 12.8341 12.3125 13.2087ZM14.9375 11.3014V6.5625H30.6875V11.3014C28.294 9.91668 25.5777 9.18753 22.8125 9.18753C20.0473 9.18753 17.331 9.91668 14.9375 11.3014ZM32 12.1529V6.5625H33.3125V13.2087C32.8937 12.8341 32.4556 12.4817 32 12.1529ZM41.1875 5.25H4.4375V4.59375H41.1875V5.25Z" fill="#1D2939"/>
<path d="M25.4375 15.0938C25.2635 15.0938 25.0965 15.1629 24.9735 15.286C24.8504 15.409 24.7812 15.576 24.7812 15.75V33.4688C24.7812 33.6428 24.8504 33.8097 24.9735 33.9328C25.0965 34.0559 25.2635 34.125 25.4375 34.125H28.0625C28.2365 34.125 28.4035 34.0559 28.5265 33.9328C28.6496 33.8097 28.7188 33.6428 28.7188 33.4688V26.9062H29.375C29.549 26.9062 29.716 26.8371 29.839 26.714C29.9621 26.591 30.0312 26.424 30.0312 26.25V19.6875C30.0299 18.4696 29.5455 17.3019 28.6843 16.4407C27.8231 15.5795 26.6554 15.0951 25.4375 15.0938ZM27.4062 32.8125H26.0938V26.9062H27.4062V32.8125ZM28.7188 25.5938H26.0938V16.4719C26.8343 16.6243 27.4998 17.0273 27.9779 17.613C28.456 18.1988 28.7177 18.9314 28.7188 19.6875V25.5938Z" fill="#1D2939"/>
<path d="M21.5 15.0938C21.326 15.0938 21.159 15.1629 21.036 15.286C20.9129 15.409 20.8438 15.576 20.8438 15.75V18.375C20.8432 18.782 20.7168 19.1788 20.4818 19.5111C20.2468 19.8433 19.9148 20.0948 19.5312 20.2309V15.75C19.5312 15.576 19.4621 15.409 19.339 15.286C19.216 15.1629 19.049 15.0938 18.875 15.0938C18.701 15.0938 18.534 15.1629 18.411 15.286C18.2879 15.409 18.2188 15.576 18.2188 15.75V20.2309C17.8352 20.0948 17.5032 19.8433 17.2682 19.5111C17.0332 19.1788 16.9068 18.782 16.9062 18.375V15.75C16.9062 15.576 16.8371 15.409 16.714 15.286C16.591 15.1629 16.424 15.0938 16.25 15.0938C16.076 15.0938 15.909 15.1629 15.786 15.286C15.6629 15.409 15.5938 15.576 15.5938 15.75V18.375C15.5946 19.1312 15.8562 19.8639 16.3344 20.4496C16.8126 21.0354 17.4781 21.4384 18.2188 21.5906V25.5938H17.5625C17.3885 25.5938 17.2215 25.6629 17.0985 25.786C16.9754 25.909 16.9062 26.076 16.9062 26.25V33.4688C16.9062 33.6428 16.9754 33.8097 17.0985 33.9328C17.2215 34.0559 17.3885 34.125 17.5625 34.125H20.1875C20.3615 34.125 20.5285 34.0559 20.6515 33.9328C20.7746 33.8097 20.8438 33.6428 20.8438 33.4688V26.25C20.8438 26.076 20.7746 25.909 20.6515 25.786C20.5285 25.6629 20.3615 25.5938 20.1875 25.5938H19.5312V21.5906C20.2719 21.4384 20.9374 21.0354 21.4156 20.4496C21.8938 19.8639 22.1554 19.1312 22.1562 18.375V15.75C22.1562 15.576 22.0871 15.409 21.964 15.286C21.841 15.1629 21.674 15.0938 21.5 15.0938ZM19.5312 32.8125H18.2188V26.9062H19.5312V32.8125Z" fill="#1D2939"/>
</g>
<defs>
<clipPath id="clip0_1_1027">
<rect width="42" height="42" fill="white" transform="translate(0.5)"/>
</clipPath>
</defs>
</svg>
