<svg width="35" height="36" viewBox="0 0 35 36" fill="none" xmlns="http://www.w3.org/2000/svg">
<path d="M5.16309 16.4875V20.8417C5.16309 26.3152 5.16309 29.052 6.86349 30.7524C8.5639 32.4528 11.3007 32.4528 16.7742 32.4528H18.2256C23.6991 32.4528 26.4359 32.4528 28.1363 30.7524C29.8367 29.052 29.8367 26.3152 29.8367 20.8417V16.4875" stroke="#1D2939" stroke-width="1.1875"/>
<path d="M13.8715 3.42505H21.1285L22.0744 12.8843C22.345 15.5906 20.2198 17.9389 17.5 17.9389C14.7802 17.9389 12.655 15.5906 12.9256 12.8843L13.8715 3.42505Z" stroke="#1D2939" stroke-width="1.1875"/>
<path d="M4.91551 8.28913C5.17397 6.99682 5.3032 6.35066 5.56596 5.82686C6.11962 4.72316 7.11586 3.90644 8.30671 3.57998C8.87187 3.42505 9.53082 3.42505 10.8487 3.42505H13.871L12.8194 13.9408C12.5924 16.2105 10.6825 17.9389 8.40145 17.9389C5.59962 17.9389 3.49821 15.3756 4.04769 12.6282L4.91551 8.28913Z" stroke="#1D2939" stroke-width="1.1875"/>
<path d="M30.0834 8.28913C29.8249 6.99682 29.6957 6.35066 29.4329 5.82686C28.8793 4.72316 27.883 3.90644 26.6922 3.57998C26.127 3.42505 25.4681 3.42505 24.1502 3.42505H21.1279L22.1795 13.9408C22.4065 16.2105 24.3164 17.9389 26.5974 17.9389C29.3993 17.9389 31.5007 15.3756 30.9512 12.6282L30.0834 8.28913Z" stroke="#1D2939" stroke-width="1.1875"/>
<path d="M13.8711 31.727V27.3729C13.8711 26.0164 13.8711 25.3381 14.1628 24.8329C14.3538 24.502 14.6287 24.2271 14.9596 24.0361C15.4648 23.7444 16.1431 23.7444 17.4996 23.7444C18.8561 23.7444 19.5343 23.7444 20.0395 24.0361C20.3705 24.2271 20.6453 24.502 20.8364 24.8329C21.128 25.3381 21.128 26.0164 21.128 27.3729V31.727" stroke="#1D2939" stroke-width="1.1875" stroke-linecap="round"/>
</svg>
