<svg width="24" height="25" viewBox="0 0 24 25" fill="none" xmlns="http://www.w3.org/2000/svg">
<path d="M20.1328 20.6017L14.2641 11.3786L20.055 5.00828C20.186 4.86065 20.2535 4.66734 20.2429 4.47027C20.2323 4.2732 20.1444 4.08825 19.9984 3.95552C19.8523 3.82279 19.6598 3.75298 19.4627 3.76121C19.2655 3.76945 19.0795 3.85508 18.945 3.99953L13.4288 10.067L9.63282 4.10172C9.56513 3.99518 9.47164 3.90744 9.36103 3.84664C9.25041 3.78584 9.12623 3.75395 9.00001 3.75391H4.50001C4.36553 3.75384 4.23351 3.78993 4.11777 3.8584C4.00204 3.92687 3.90684 4.02519 3.84214 4.14308C3.77745 4.26097 3.74564 4.39409 3.75004 4.52849C3.75445 4.66289 3.79491 4.79363 3.86719 4.90703L9.73594 14.1292L3.94501 20.5042C3.87738 20.5769 3.82485 20.6622 3.79045 20.7553C3.75605 20.8484 3.74047 20.9474 3.74461 21.0466C3.74875 21.1457 3.77254 21.2431 3.81458 21.333C3.85663 21.4229 3.9161 21.5035 3.98955 21.5703C4.063 21.637 4.14896 21.6885 4.24246 21.7218C4.33597 21.7551 4.43514 21.7695 4.53425 21.7642C4.63335 21.7588 4.73041 21.7339 4.81981 21.6908C4.9092 21.6476 4.98914 21.5872 5.05501 21.513L10.5713 15.4455L14.3672 21.4108C14.4354 21.5165 14.5292 21.6033 14.6397 21.6632C14.7503 21.7232 14.8742 21.7544 15 21.7539H19.5C19.6343 21.7539 19.7662 21.7177 19.8818 21.6493C19.9974 21.5809 20.0925 21.4827 20.1572 21.365C20.2218 21.2472 20.2537 21.1143 20.2494 20.98C20.2451 20.8457 20.2049 20.7151 20.1328 20.6017ZM15.4116 20.2539L5.86594 5.25391H8.58469L18.1341 20.2539H15.4116Z" fill="black"/>
</svg>
